<mxfile host="Electron" agent="Mozilla/5.0 (Macintosh; Intel Mac OS X 10_15_7) AppleWebKit/537.36 (KHTML, like Gecko) draw.io/26.0.9 Chrome/128.0.6613.186 Electron/32.2.5 Safari/537.36" version="26.0.9">
  <diagram name="Seite-1" id="8vgHgrOSn-QUMQu2wvKy">
    <mxGraphModel dx="1865" dy="1351" grid="1" gridSize="10" guides="1" tooltips="1" connect="1" arrows="1" fold="1" page="1" pageScale="1" pageWidth="827" pageHeight="1169" math="0" shadow="0">
      <root>
        <mxCell id="0" />
        <mxCell id="1" parent="0" />
        <mxCell id="mCgtg-J_HniY9TTjHRlm-25" value="" style="triangle;whiteSpace=wrap;html=1;" vertex="1" parent="1">
          <mxGeometry x="170" y="10" width="60" height="80" as="geometry" />
        </mxCell>
        <mxCell id="mCgtg-J_HniY9TTjHRlm-26" value="Integration" style="text;html=1;align=center;verticalAlign=middle;whiteSpace=wrap;rounded=0;" vertex="1" parent="1">
          <mxGeometry x="20" y="100" width="60" height="30" as="geometry" />
        </mxCell>
        <mxCell id="mCgtg-J_HniY9TTjHRlm-27" value="Summe" style="text;html=1;align=center;verticalAlign=middle;whiteSpace=wrap;rounded=0;" vertex="1" parent="1">
          <mxGeometry x="170" y="100" width="60" height="30" as="geometry" />
        </mxCell>
        <mxCell id="mCgtg-J_HniY9TTjHRlm-28" value="" style="group;fillColor=default;" vertex="1" connectable="0" parent="1">
          <mxGeometry x="290" y="10" width="140" height="80" as="geometry" />
        </mxCell>
        <mxCell id="mCgtg-J_HniY9TTjHRlm-29" value="" style="endArrow=none;html=1;rounded=0;entryX=0;entryY=0;entryDx=0;entryDy=0;exitX=1;exitY=0;exitDx=0;exitDy=0;" edge="1" parent="mCgtg-J_HniY9TTjHRlm-28">
          <mxGeometry width="50" height="50" relative="1" as="geometry">
            <mxPoint x="80" as="sourcePoint" />
            <mxPoint as="targetPoint" />
          </mxGeometry>
        </mxCell>
        <mxCell id="mCgtg-J_HniY9TTjHRlm-30" value="" style="endArrow=none;html=1;rounded=0;entryX=1;entryY=0;entryDx=0;entryDy=0;exitX=1;exitY=0.5;exitDx=0;exitDy=0;" edge="1" parent="mCgtg-J_HniY9TTjHRlm-28">
          <mxGeometry width="50" height="50" relative="1" as="geometry">
            <mxPoint x="140" y="40" as="sourcePoint" />
            <mxPoint x="80" as="targetPoint" />
          </mxGeometry>
        </mxCell>
        <mxCell id="mCgtg-J_HniY9TTjHRlm-31" value="" style="endArrow=none;html=1;rounded=0;entryX=1;entryY=0.5;entryDx=0;entryDy=0;exitX=1;exitY=1;exitDx=0;exitDy=0;" edge="1" parent="mCgtg-J_HniY9TTjHRlm-28">
          <mxGeometry width="50" height="50" relative="1" as="geometry">
            <mxPoint x="80" y="80" as="sourcePoint" />
            <mxPoint x="140" y="40" as="targetPoint" />
          </mxGeometry>
        </mxCell>
        <mxCell id="mCgtg-J_HniY9TTjHRlm-32" value="" style="endArrow=none;html=1;rounded=0;entryX=1;entryY=1;entryDx=0;entryDy=0;exitX=0;exitY=1;exitDx=0;exitDy=0;" edge="1" parent="mCgtg-J_HniY9TTjHRlm-28">
          <mxGeometry width="50" height="50" relative="1" as="geometry">
            <mxPoint y="80" as="sourcePoint" />
            <mxPoint x="80" y="80" as="targetPoint" />
          </mxGeometry>
        </mxCell>
        <mxCell id="mCgtg-J_HniY9TTjHRlm-33" value="" style="endArrow=none;html=1;rounded=0;exitX=0;exitY=1;exitDx=0;exitDy=0;entryX=0;entryY=0;entryDx=0;entryDy=0;" edge="1" parent="mCgtg-J_HniY9TTjHRlm-28">
          <mxGeometry width="50" height="50" relative="1" as="geometry">
            <mxPoint y="80" as="sourcePoint" />
            <mxPoint as="targetPoint" />
          </mxGeometry>
        </mxCell>
        <mxCell id="mCgtg-J_HniY9TTjHRlm-34" value="x" style="text;html=1;align=center;verticalAlign=middle;whiteSpace=wrap;rounded=0;" vertex="1" parent="mCgtg-J_HniY9TTjHRlm-28">
          <mxGeometry x="20" y="25" width="60" height="30" as="geometry" />
        </mxCell>
        <mxCell id="mCgtg-J_HniY9TTjHRlm-35" value="Produkt" style="text;html=1;align=center;verticalAlign=middle;whiteSpace=wrap;rounded=0;" vertex="1" parent="1">
          <mxGeometry x="310" y="100" width="60" height="30" as="geometry" />
        </mxCell>
        <mxCell id="mCgtg-J_HniY9TTjHRlm-36" value="Funktion" style="text;html=1;align=center;verticalAlign=middle;whiteSpace=wrap;rounded=0;" vertex="1" parent="1">
          <mxGeometry x="510" y="100" width="60" height="30" as="geometry" />
        </mxCell>
        <mxCell id="mCgtg-J_HniY9TTjHRlm-37" value="" style="group;fillColor=default;" vertex="1" connectable="0" parent="1">
          <mxGeometry x="490" y="10" width="140" height="80" as="geometry" />
        </mxCell>
        <mxCell id="mCgtg-J_HniY9TTjHRlm-38" value="" style="endArrow=none;html=1;rounded=0;entryX=0;entryY=0;entryDx=0;entryDy=0;exitX=1;exitY=0;exitDx=0;exitDy=0;" edge="1" parent="mCgtg-J_HniY9TTjHRlm-37">
          <mxGeometry width="50" height="50" relative="1" as="geometry">
            <mxPoint x="80" as="sourcePoint" />
            <mxPoint as="targetPoint" />
          </mxGeometry>
        </mxCell>
        <mxCell id="mCgtg-J_HniY9TTjHRlm-39" value="" style="endArrow=none;html=1;rounded=0;entryX=1;entryY=0;entryDx=0;entryDy=0;exitX=1;exitY=0.5;exitDx=0;exitDy=0;" edge="1" parent="mCgtg-J_HniY9TTjHRlm-37">
          <mxGeometry width="50" height="50" relative="1" as="geometry">
            <mxPoint x="140" y="40" as="sourcePoint" />
            <mxPoint x="80" as="targetPoint" />
          </mxGeometry>
        </mxCell>
        <mxCell id="mCgtg-J_HniY9TTjHRlm-40" value="" style="endArrow=none;html=1;rounded=0;entryX=1;entryY=0.5;entryDx=0;entryDy=0;exitX=1;exitY=1;exitDx=0;exitDy=0;" edge="1" parent="mCgtg-J_HniY9TTjHRlm-37">
          <mxGeometry width="50" height="50" relative="1" as="geometry">
            <mxPoint x="80" y="80" as="sourcePoint" />
            <mxPoint x="140" y="40" as="targetPoint" />
          </mxGeometry>
        </mxCell>
        <mxCell id="mCgtg-J_HniY9TTjHRlm-41" value="" style="endArrow=none;html=1;rounded=0;entryX=1;entryY=1;entryDx=0;entryDy=0;exitX=0;exitY=1;exitDx=0;exitDy=0;" edge="1" parent="mCgtg-J_HniY9TTjHRlm-37">
          <mxGeometry width="50" height="50" relative="1" as="geometry">
            <mxPoint y="80" as="sourcePoint" />
            <mxPoint x="80" y="80" as="targetPoint" />
          </mxGeometry>
        </mxCell>
        <mxCell id="mCgtg-J_HniY9TTjHRlm-42" value="" style="endArrow=none;html=1;rounded=0;exitX=0;exitY=1;exitDx=0;exitDy=0;entryX=0;entryY=0;entryDx=0;entryDy=0;" edge="1" parent="mCgtg-J_HniY9TTjHRlm-37">
          <mxGeometry width="50" height="50" relative="1" as="geometry">
            <mxPoint y="80" as="sourcePoint" />
            <mxPoint as="targetPoint" />
          </mxGeometry>
        </mxCell>
        <mxCell id="mCgtg-J_HniY9TTjHRlm-43" value="f(x)" style="text;html=1;align=center;verticalAlign=middle;whiteSpace=wrap;rounded=0;" vertex="1" parent="mCgtg-J_HniY9TTjHRlm-37">
          <mxGeometry x="20" y="25" width="60" height="30" as="geometry" />
        </mxCell>
        <mxCell id="mCgtg-J_HniY9TTjHRlm-44" value="" style="group" vertex="1" connectable="0" parent="1">
          <mxGeometry x="10" y="10" width="90" height="80" as="geometry" />
        </mxCell>
        <mxCell id="mCgtg-J_HniY9TTjHRlm-45" value="" style="triangle;whiteSpace=wrap;html=1;" vertex="1" parent="mCgtg-J_HniY9TTjHRlm-44">
          <mxGeometry x="30" width="60" height="80" as="geometry" />
        </mxCell>
        <mxCell id="mCgtg-J_HniY9TTjHRlm-46" value="" style="rounded=0;whiteSpace=wrap;html=1;" vertex="1" parent="mCgtg-J_HniY9TTjHRlm-44">
          <mxGeometry width="30" height="80" as="geometry" />
        </mxCell>
        <mxCell id="mCgtg-J_HniY9TTjHRlm-47" value="" style="ellipse;whiteSpace=wrap;html=1;aspect=fixed;" vertex="1" parent="1">
          <mxGeometry x="680" y="10" width="80" height="80" as="geometry" />
        </mxCell>
        <mxCell id="mCgtg-J_HniY9TTjHRlm-48" value="Koeffizient" style="text;html=1;align=center;verticalAlign=middle;whiteSpace=wrap;rounded=0;" vertex="1" parent="1">
          <mxGeometry x="690" y="100" width="60" height="30" as="geometry" />
        </mxCell>
      </root>
    </mxGraphModel>
  </diagram>
</mxfile>
